<svg 
id="图层_1" 
data-name="图层 1" 
xmlns="http://www.w3.org/2000/svg" 
xmlns:xlink="http://www.w3.org/1999/xlink" 
viewBox="0 0 306.05 307.41"
><defs><style>.cls-1{fill:url(#未命名的渐变_17);}.cls-2{fill:#4eadfe;}</style><linearGradient id="未命名的渐变_17" x1="106.02" y1="248.05" x2="385.63" y2="248.05" gradientUnits="userSpaceOnUse"><stop offset="0" stop-color="#4eadfe"/><stop offset="1" stop-color="#04f0fe"/></linearGradient></defs><title>logo</title><g id="lvpGJK.tif"><path class="cls-1" d="M251.19,283.67c0-6.47-.14-12.94.06-19.41.11-3.39-1.33-5.7-3.18-8.43-8.49-12.53-20.52-14.75-34.53-14-8.4.47-16.92,1.84-25.4.27a4,4,0,0,0-1.65.12c-5.68,1.4-18.17,17.54-18.17,23.5,0,12.57.07,25.14,0,37.71-.06,9.1-3.72,12.71-12.86,12.77q-17.74.13-35.5.05c-9.6-.05-13.63-3.85-13.78-13.36q-.28-17.73,0-35.49c.14-9.31,4.44-13.36,13.85-13.4,12-.06,24-.09,36,0,3.37,0,5.76-1.3,8.42-3.3,11-8.28,16.27-18.39,14-32.62-1.25-7.74-.34-15.86-.18-23.81.21-10.07,4.26-14.25,14.22-14.42q17.19-.28,34.38,0c10.08.16,13.59,3.85,13.56,13.92,0,12.35,1.6,24.7,0,37-.47,3.62,1.37,6.06,3.49,8.86,8.61,11.37,19.31,16.68,33.87,14.45,6.68-1,13.67-.51,20.48-.07,5.71.38,9.38-2.16,13.63-5.61,9.16-7.4,12.86-16.09,11.6-27.86-1-9-.24-18.09-.18-27.15.07-9.25,3.24-13.11,12.45-13.42,12.55-.43,25.14-.41,37.69,0,8.3.3,12,4.58,12,12.84q.21,18.57.06,37.15c-.05,7.93-4.08,11.9-12,11.94-12.54.06-25.08.12-37.61,0-3.77-.05-6.4,1.37-9.4,3.61-10.79,8.07-15.43,18-13.41,31.73,1.2,8.14.29,16.61.21,24.92-.1,10.11-4.12,14-14.21,14-11.83,0-23.66.06-35.49,0-8.74-.07-12.37-3.82-12.52-12.6v-1.1Q251.18,293.1,251.19,283.67Z" transform="translate(-96.96 -96.59)"/><path class="cls-2" d="M394.28,201.19c4,7.71,5.39,15.81,6.63,23.89,6.94,45.32-3.19,86.52-32.16,122.07S302.42,402.34,256.19,404c-6.94.24-7.19-.18-7.21-7.09,0-14.23.17-28.46-.17-42.67-.13-5.21,1.62-7.23,6.76-7.56a92.47,92.47,0,0,0,50.35-18.21c23.91-17.81,36.82-41.9,39.31-71.46.43-5.2,2.32-6.61,7.11-6.43,7,.26,14,.15,21.06,0,12.63-.31,19.72-7.61,19.83-20.3.08-9.24.07-18.47.13-27.7C393.36,202.23,393.73,202,394.28,201.19Z" transform="translate(-96.96 -96.59)"/><path class="cls-2" d="M381,172.14c-15.36,0-30.28,0-45.21,0-6.43,0-12.12,1.84-16.25,6.88-2.38,2.89-3.95,2.13-6.23,0-16.52-15.35-36.48-22.71-58.63-24.52-4.3-.35-5.75-1.85-5.71-6.05q.22-23,0-46c0-4.26,1.42-6.14,5.79-5.83,54.12,3.81,96.41,27.73,125.69,73.8A7.82,7.82,0,0,1,381,172.14Z" transform="translate(-96.96 -96.59)"/><path class="cls-2" d="M189,166.58c-5,0-10,.11-14.94,0-5.78-.16-9-3.06-9.18-8.85-.27-10.33-.21-20.67-.09-31,.06-5.23,3.09-8.5,8.22-8.66,10.69-.31,21.41-.42,32.09,0,5.75.23,8.41,3.69,8.5,9.62.14,9.78.17,19.56,0,29.34-.13,6.5-3.22,9.41-9.63,9.55C199,166.67,194,166.58,189,166.58Z" transform="translate(-96.96 -96.59)"/><path class="cls-2" d="M194.67,337.06c5,0,10-.1,15,0,5.7.15,8.88,2.55,9.11,8.25.43,10.49.45,21,0,31.53-.25,5.88-4.39,9.29-10,8.78-9.59-.87-19.18-.22-28.77-.51-7.09-.21-9.62-2.67-9.69-9.81-.09-9.6-.11-19.2,0-28.8.09-6.79,2.66-9.22,9.46-9.47h14.95Z" transform="translate(-96.96 -96.59)"/><path class="cls-2" d="M132.32,222c-4.61,0-9.22.09-13.82,0-5.1-.13-7.91-2.92-8-8-.15-9-.2-18,0-27.08.12-5.21,3.15-8.15,8.43-8.27q13.26-.28,26.53,0c5.81.13,8.26,2.74,8.35,8.71q.23,13.26,0,26.53c-.1,5.64-2.51,7.92-8.24,8.1-4.42.13-8.84,0-13.26,0Z" transform="translate(-96.96 -96.59)"/><path class="cls-2" d="M203.78,291.89c-3.14,0-6.28.06-9.42,0-5.84-.15-8.22-2.17-8.42-7.92-.25-7-.1-14,0-21.05.07-4.68,2.79-7.24,7.3-7.39,7.19-.23,14.4-.28,21.59,0,5.06.15,7.66,3.1,7.64,8.26,0,6.65.14,13.3-.06,19.95-.19,6-2.49,8.08-8.68,8.21C210.43,292,207.1,291.89,203.78,291.89Z" transform="translate(-96.96 -96.59)"/><path class="cls-2" d="M144,351.87c-12.58,0-12.58,0-12.58-12.41s0-12.42,12.48-12.33c12.25.09,12.25.09,12.25,12.61C156.17,351.87,156.17,351.87,144,351.87Z" transform="translate(-96.96 -96.59)"/><path class="cls-2" d="M141.77,168.77c-9.83,0-10.32-.51-10.31-10.88,0-8.26.89-9.14,9.24-9.14,10.28,0,10.83.48,10.84,9.77C151.55,168.2,151,168.76,141.77,168.77Z" transform="translate(-96.96 -96.59)"/><path class="cls-2" d="M227.67,324c-8.85,0-9.63-.73-9.64-9.21,0-8.83.74-9.63,9.2-9.65,8.82,0,9.63.76,9.65,9.21C236.9,323.13,236.11,324,227.67,324Z" transform="translate(-96.96 -96.59)"/><path class="cls-2" d="M115,238.08c0,8.65-.76,9.39-9.49,9.38-8.27,0-8.51-.27-8.51-9.45s.27-9.4,8.58-9.4C114.2,228.6,115,229.37,115,238.08Z" transform="translate(-96.96 -96.59)"/><path class="cls-2" d="M236.9,157.81c.63,5-1.92,6.47-6.49,6.46-5,0-6.84-2.29-6.79-7.1s2.27-6.33,6.85-6.37C235.62,150.75,237.56,153,236.9,157.81Z" transform="translate(-96.96 -96.59)"/><path class="cls-2" d="M152.56,234.88c-.52-5,2.61-5.31,6.28-5.35,4.43-.06,5,2.54,5,6.07,0,4.64-2.73,5.29-6.49,5.29C152.87,240.89,152.18,238.28,152.56,234.88Z" transform="translate(-96.96 -96.59)"/></g></svg>