<?xml version="1.0" standalone="no"?>
<!DOCTYPE svg PUBLIC "-//W3C//DTD SVG 1.1//EN" "http://www.w3.org/Graphics/SVG/1.1/DTD/svg11.dtd">
<svg t="1532335175881" class="icon" style="" viewBox="0 0 1024 1024" version="1.1" xmlns="http://www.w3.org/2000/svg" p-id="2459" xmlns:xlink="http://www.w3.org/1999/xlink" width="18" height="18">
	<defs>
		<style type="text/css">
		</style>
	</defs>
	<path d="M801.096281 957.348997 629.954459 957.348997c-19.96982 0-38.392402-10.295484-50.54314-28.245298-9.143241-13.505595-14.386662-30.933523-14.386662-47.817052L565.024657 711.197808c0-25.476231-23.433712-48.678676-49.166793-48.678676s-49.166793 23.202445-49.166793 48.678676l0 170.089863c0 16.882506-5.244444 34.310434-14.387685 47.817052-12.151761 17.949814-30.573319 28.245298-50.542116 28.245298L219.211631 957.350021c-19.96982 0-38.391379-10.295484-50.54314-28.245298-9.142218-13.505595-14.385639-30.933523-14.385639-47.817052l0-362.864378c0-1.214664-0.084934-2.330068-0.215918-3.318582L70.885444 515.104711c-15.183817 0-34.30634-9.561773-41.475624-27.836999-5.287423-13.475919-6.004761-34.720779 20.6012-59.393715l1.25048-1.098008c45.754067-38.033221 128.830157-106.767676 209.168903-173.2396 77.396741-64.036455 157.407006-130.235157 200.684672-166.205393 14.564717-13.848403 34.637892-21.76163 55.324026-21.76163 20.269649 0 39.447431 7.718799 54.17383 21.770839 45.853327 38.109969 129.175011 107.051131 209.768561 173.733856 81.461313 67.403133 158.405753 131.067105 200.071711 165.700903l0.824785 0.710175c18.999726 16.968463 25.725918 39.201837 17.990746 59.47251-6.42227 16.83441-21.8701 28.14399-38.439474 28.14399l-79.865979 0c-1.517563 0-2.594081 0.158612-3.252067 0.313132-0.13917 0.621147-0.278339 1.617847-0.278339 3.00545l0 362.864378c0 18.191314-8.695033 37.278022-23.856337 52.366671C838.445934 948.713316 819.316248 957.348997 801.096281 957.348997zM631.211079 895.950625 801.017486 895.950625c4.806469-0.473791 14.413268-9.93835 15.017018-14.784728L816.034505 518.423293c0-38.104853 26.700105-64.716954 64.928778-64.716954l35.806507 0c-43.756573-36.295648-108.095927-89.531106-175.527712-145.32483-81.154321-67.147306-165.071569-136.580678-210.779587-174.573991l-1.02433-0.852414-0.947582-0.937348c-3.432169-3.3984-7.374968-5.050016-12.051477-5.050016-4.928243 0-10.114358 1.981121-13.20986 5.045923l-0.948605 0.938372-1.026376 0.853437c-43.11803 35.842323-123.728976 102.537328-201.684442 167.036317C232.008075 356.74296 162.513304 414.241512 114.942869 453.706339l47.220465 0c31.010271 0 53.517891 27.217898 53.517891 64.716954l0 362.864378c0 6.733355 2.89698 12.682857 4.787026 14.662955L400.505673 895.950625c1.89107-1.981121 4.78805-7.930623 4.78805-14.662955L405.293723 711.197808c0-28.26781 12.014638-56.43943 32.961716-77.292364 20.930705-20.834514 49.215912-32.784684 77.603449-32.784684 28.386514 0 56.671721 11.95017 77.602426 32.784684 20.949124 20.852934 32.962739 49.024553 32.962739 77.292364l0 170.089863C626.424052 888.021026 629.321032 893.970528 631.211079 895.950625z" p-id="2460" fill="#ffffff">
	</path>
</svg>
